<svg xmlns="http://www.w3.org/2000/svg" xmlns:xlink="http://www.w3.org/1999/xlink" version="1.1" x="0px" y="0px" viewBox="0 0 100 125" style="enable-background:new 0 0 100 100;" xml:space="preserve"><title>Artboard 77</title><path d="M83.3,13.5H16.7c-4,0-7.3,3.3-7.3,7.3v58.3c0,4,3.3,7.3,7.3,7.3h66.7c4,0,7.3-3.3,7.3-7.3V20.8  C90.6,16.8,87.4,13.5,83.3,13.5z M15.6,79.2V20.8c0-0.6,0.5-1,1-1h30.2v60.4H16.7C16.1,80.2,15.6,79.7,15.6,79.2z M84.4,79.2  c0,0.6-0.5,1-1,1H53.1V19.8h30.2c0.6,0,1,0.5,1,1V79.2z"/><text x="0" y="115" fill="#000000" font-size="5px" font-weight="bold" font-family="'Helvetica Neue', Helvetica, Arial-Unicode, Arial, Sans-serif">Created by Division Icons</text><text x="0" y="120" fill="#000000" font-size="5px" font-weight="bold" font-family="'Helvetica Neue', Helvetica, Arial-Unicode, Arial, Sans-serif">from the Noun Project</text></svg>